<?xml version="1.0" encoding="UTF-8"?>
<svg width="25px" height="25px" viewBox="0 0 25 25" version="1.1" xmlns="http://www.w3.org/2000/svg" xmlns:xlink="http://www.w3.org/1999/xlink">
    <!-- Generator: sketchtool 53.2 (72643) - https://sketchapp.com -->
    <title>2EAA9DA0-4431-4312-B64D-242C58ADCD89</title>
    <desc>Created with sketchtool.</desc>
    <g id="style-guide" stroke="none" stroke-width="1" fill="none" fill-rule="evenodd">
        <g transform="translate(-1260.000000, -2880.000000)" fill="#000000" id="icons">
            <g transform="translate(140.000000, 2792.000000)">
                <g id="icon-twitter" transform="translate(1120.000000, 88.000000)">
                    <g id="Shape">
                        <path d="M12.4687496,0.256602638 C5.71047778,0.256602638 0.209558824,5.79921961 0.209558824,12.5735292 C0.209558824,19.3991594 5.71047778,24.8904558 12.4687496,24.8904558 C19.2270215,24.8904558 24.7279404,19.3478389 24.7279404,12.5735292 C24.7279404,5.79921961 19.2270215,0.256602638 12.4687496,0.256602638 L12.4687496,0.256602638 Z M18.6507345,10.110144 L18.6507345,10.5207082 C18.6507345,14.6263503 15.559742,19.3478388 9.84926425,19.3478388 C8.12040403,19.3478388 6.49632321,18.8346335 5.13419091,17.9621846 C5.39613943,18.0135051 5.60569825,18.0135051 5.86764676,18.0135051 C7.33455847,18.0135051 8.64430107,17.5002998 9.69209514,16.6791714 C8.32996284,16.6791714 7.17738936,15.7554019 6.81066143,14.5237093 C7.02022025,14.5750298 7.17738936,14.5750298 7.38694817,14.5750298 C7.64889669,14.5750298 7.96323492,14.5237093 8.22518343,14.4723887 C6.81066143,14.1644656 5.76286736,12.9327729 5.76286736,11.4444777 L5.76286736,11.3931571 C6.18198499,11.6497598 6.65349232,11.7524008 7.17738936,11.8037214 C6.3391541,11.2391956 5.81525706,10.3154261 5.81525706,9.23769502 C5.81525706,8.67316922 5.97242617,8.10864343 6.23437469,7.69807922 C7.7536761,9.5969387 10.0588231,10.8286313 12.6259186,10.9312724 C12.5735288,10.7259903 12.5211391,10.4693877 12.5211391,10.212785 C12.5211391,8.51920764 13.8832714,7.0822329 15.6121317,7.0822329 C16.5027566,7.0822329 17.2886022,7.44147658 17.8648889,8.0573229 C18.5459551,7.90336132 19.2270212,7.64675869 19.803308,7.287515 C19.5937492,8.00600238 19.0698521,8.6218487 18.4411757,9.03241291 C19.0698521,8.98109238 19.6461389,8.77581028 20.2224256,8.51920764 C19.7509183,9.13505396 19.2270212,9.64825923 18.6507345,10.110144 L18.6507345,10.110144 Z"></path>
                    </g>
                </g>
            </g>
        </g>
    </g>
</svg>