<?xml version="1.0" encoding="UTF-8"?>
<svg width="26px" height="26px" viewBox="0 0 26 26" version="1.1" xmlns="http://www.w3.org/2000/svg" xmlns:xlink="http://www.w3.org/1999/xlink">
    <!-- Generator: sketchtool 53.2 (72643) - https://sketchapp.com -->
    <title>E3F52443-1DAE-4517-BBC4-B7A78B7C61BD</title>
    <desc>Created with sketchtool.</desc>
    <g id="style-guide" stroke="none" stroke-width="1" fill="none" fill-rule="evenodd">
        <g transform="translate(-1540.000000, -2880.000000)" fill="#000000" id="icons">
            <g transform="translate(140.000000, 2792.000000)">
                <g id="icon-insta" transform="translate(1400.000000, 88.279412)">
                    <g id="Shape">
                        <path d="M16.4590065,9.46299185 L16.4590065,9.46042583 C16.6694206,9.46042583 16.880348,9.46453147 17.0912754,9.45939942 C17.3649853,9.44788424 17.5812838,9.22322311 17.5824128,8.94927337 L17.5824128,7.73810892 C17.5824128,7.44866115 17.3530101,7.21823198 17.0640755,7.21823198 L15.8559902,7.21823198 C15.5675689,7.21823198 15.3376529,7.44917435 15.3376529,7.73913534 C15.3376529,8.13943545 15.3361133,8.53973556 15.3391925,8.94003568 C15.3397057,8.99956749 15.3509962,9.06166533 15.3699848,9.11811791 C15.4423468,9.3310981 15.637878,9.46196544 15.8765185,9.46350506 L16.4590065,9.46299185 L16.4590065,9.46299185 Z M12.5735292,9.9818423 C11.1591792,9.98857714 10.0116288,11.1284307 9.99537602,12.5427033 C9.97912324,13.956976 11.1001756,15.1229003 12.5139973,15.1621364 C13.9612362,15.1929287 15.1328839,14.0366772 15.163163,12.6294683 C15.1779178,11.9328601 14.9117258,11.25962 14.4245726,10.7614609 C13.9374193,10.2633019 13.2702932,9.98213809 12.5735292,9.98132909 L12.5735292,9.9818423 Z M7.5636193,11.3644172 L7.5636193,17.0753653 C7.5636193,17.3473641 7.79918053,17.5818989 8.07169254,17.5818989 L17.0733134,17.5818989 C17.3483914,17.5818989 17.5829263,17.3483905 17.5829263,17.0738257 L17.5829263,11.3654436 L16.3625241,11.3654436 C16.5342173,11.9085927 16.5879333,12.4821464 16.5200781,13.0477304 C16.4543664,13.6127244 16.266083,14.156557 15.9683824,14.6412328 C14.8571241,16.4669461 12.5008072,17.0866357 10.635153,16.0438228 C9.98147978,15.6842672 9.44519091,15.1440586 9.09040505,14.4877844 C8.55051308,13.4931926 8.46429459,12.4488199 8.78094226,11.3649304 L7.5636193,11.3649304 L7.5636193,11.3644172 Z M17.68916,18.9665275 C17.7558767,18.9557501 17.8225933,18.9459992 17.8877704,18.9316295 C18.4183914,18.8120837 18.829807,18.3928373 18.9393281,17.8600569 C18.9495922,17.8025779 18.9578035,17.7456121 18.9670411,17.6886463 L18.9670411,7.45789898 C18.9583167,7.40195961 18.9506186,7.34499382 18.9398413,7.28956765 C18.823882,6.71356515 18.3567743,6.27361967 17.7748652,6.19233476 C17.7502314,6.18976873 17.7276504,6.18412347 17.7035297,6.18001783 L7.44404268,6.18001783 C7.38245804,6.19130835 7.319847,6.19951963 7.25928877,6.21337617 C6.696148,6.3385968 6.27047179,6.80112808 6.19233497,7.37270691 C6.18925573,7.39682756 6.18412368,7.420435 6.18053124,7.44455565 L6.18053124,17.7035293 C6.19182176,17.7681931 6.20105946,17.8338834 6.21594241,17.8985473 C6.34661718,18.457168 6.80836378,18.8772717 7.37681278,18.9547237 C7.40349946,18.957803 7.43121255,18.9634482 7.45892563,18.9670407 L17.6886468,18.9670407 L17.68916,18.9665275 Z M12.5735292,25.1470585 C5.62986187,25.1470585 0,19.5171966 0,12.5735292 C0,5.62934866 5.62986187,0 12.5735292,0 C19.5171966,0 25.1470585,5.62934866 25.1470585,12.5735292 C25.1470585,19.5171966 19.5171966,25.1470585 12.5735292,25.1470585 Z"></path>
                    </g>
                </g>
            </g>
        </g>
    </g>
</svg>