<?xml version="1.0" encoding="UTF-8"?>
<svg width="25px" height="26px" viewBox="0 0 25 26" version="1.1" xmlns="http://www.w3.org/2000/svg" xmlns:xlink="http://www.w3.org/1999/xlink">
    <!-- Generator: sketchtool 53.2 (72643) - https://sketchapp.com -->
    <title>A264109D-D9D2-456D-9455-C48C793DFC64</title>
    <desc>Created with sketchtool.</desc>
    <g id="style-guide" stroke="none" stroke-width="1" fill="none" fill-rule="evenodd">
        <g transform="translate(-1400.000000, -2880.000000)" fill="#000000" id="icons">
            <g transform="translate(140.000000, 2792.000000)">
                <g id="icon-youtube" transform="translate(1260.000000, 88.000000)">
                    <g id="Shape">
                        <path d="M7.1250001,13.7784927 L8.01562508,13.7784927 L8.01562508,18.2316175 L8.90625005,18.2316175 L8.90625005,13.7784927 L9.79687502,13.7784927 L9.79687502,13.0450369 L7.1250001,13.0450369 L7.1250001,13.7784927 Z M12.46875,10.1112132 C12.5735294,10.1112132 12.6783088,10.0588235 12.7306985,10.0064338 C12.7830883,9.95404409 12.835478,9.84926468 12.835478,9.74448528 L12.835478,7.43933833 C12.835478,7.33455892 12.7830883,7.28216921 12.7306985,7.22977951 C12.6783088,7.17738981 12.5735294,7.1250001 12.46875,7.1250001 C12.3639706,7.1250001 12.2591912,7.17738981 12.2068015,7.22977951 C12.1544118,7.28216921 12.1020221,7.38694862 12.1020221,7.43933833 L12.1020221,9.74448528 C12.1020221,9.84926468 12.1544118,9.95404409 12.2068015,10.0064338 C12.2591912,10.0588235 12.3639706,10.1112132 12.46875,10.1112132 Z M14.3547794,14.3547795 C14.2499999,14.3547795 14.0928308,14.4071692 13.9880514,14.4595589 C13.883272,14.5119486 13.7784926,14.616728 13.6737132,14.7215075 L13.6737132,13.0450369 L12.8878677,13.0450369 L12.8878677,18.2316177 L13.6737132,18.2316177 L13.6737132,17.9172795 C13.7784926,18.0220589 13.883272,18.1268383 13.9880514,18.179228 C14.0928308,18.2316177 14.2499999,18.2840074 14.4071691,18.2840074 C14.6167279,18.2840074 14.8262867,18.2316177 14.9310661,18.0744486 C15.0358455,17.9172795 15.0882352,17.7077207 15.0882352,17.4457721 L15.0882352,15.2977942 C15.0882352,14.983456 15.0358455,14.7215075 14.8786764,14.5643383 C14.773897,14.4595589 14.6167279,14.3547795 14.3547794,14.3547795 L14.3547794,14.3547795 Z M14.3023897,17.3409925 C14.3023897,17.4457719 14.3023897,17.5505513 14.25,17.602941 C14.1976103,17.6553307 14.1452206,17.7077205 14.0404412,17.7077205 C13.9880515,17.7077205 13.9356618,17.7077205 13.8308824,17.6553307 C13.7784927,17.602941 13.726103,17.602941 13.6737133,17.4981616 L13.6737133,15.0882351 C13.726103,15.0358454 13.7784927,14.9834557 13.8308824,14.9834557 C13.8832721,14.931066 13.9356618,14.931066 13.9880515,14.931066 C14.0928309,14.931066 14.1976103,14.9834557 14.25,15.0358454 C14.3023897,15.0882351 14.3547794,15.1930145 14.3547794,15.3501836 L14.3547794,17.3409925 L14.3023897,17.3409925 Z M11.578125,17.3409927 C11.5257353,17.4457721 11.4209559,17.4981618 11.3161765,17.5505515 C11.2113971,17.6029412 11.1590073,17.6553309 11.1066176,17.6553309 C11.0542279,17.6553309 11.0018382,17.6553309 10.9494485,17.6029412 C10.8970588,17.5505515 10.8970588,17.4981618 10.8970588,17.3933824 L10.8970588,14.4595588 L10.1112132,14.4595588 L10.1112132,17.6553309 C10.1112132,17.8648897 10.1636029,18.0744485 10.2683823,18.1792279 C10.3731617,18.2840074 10.4779412,18.3363971 10.6875,18.3363971 C10.8446691,18.3363971 11.0018382,18.2840074 11.1590073,18.2316177 C11.3161765,18.1268382 11.4733456,18.0220588 11.578125,17.8648897 L11.578125,18.2840074 L12.3639706,18.2840074 L12.3639706,14.4595588 L11.578125,14.4595588 L11.578125,17.3409927 L11.578125,17.3409927 Z"></path>
                        <path d="M12.4163603,0.36672793 C5.55330884,0.36672793 0.052389706,5.92003677 0.052389706,12.7306986 C0.052389706,19.59375 5.60569854,25.0946692 12.4163603,25.0946692 C19.2794118,25.0946692 24.780331,19.5413603 24.780331,12.7306986 C24.780331,5.92003677 19.2794118,0.36672793 12.4163603,0.36672793 L12.4163603,0.36672793 Z M14.4071693,6.49632334 L15.2454046,6.49632334 L15.2454046,9.74448513 C15.2454046,9.84926454 15.2454046,9.90165425 15.2977943,9.95404396 C15.350184,10.0064337 15.4025737,10.0064337 15.4549635,10.0064337 C15.5073532,10.0064337 15.6121326,9.95404396 15.716912,9.90165425 C15.8216914,9.84926454 15.9264708,9.74448513 15.9788605,9.69209543 L15.9788605,6.49632334 L16.8694855,6.49632334 L16.8694855,10.7398896 L15.9788605,10.7398896 L15.9788605,10.2683822 C15.8216914,10.4255513 15.6645223,10.5827204 15.4549635,10.6874998 C15.2977943,10.7922793 15.1406252,10.844669 14.9310664,10.844669 C14.7215076,10.844669 14.5643384,10.7922793 14.459559,10.6351101 C14.3547796,10.5303307 14.3023899,10.3207719 14.3023899,10.0588234 C14.4071693,10.0064337 14.4071693,6.49632334 14.4071693,6.49632334 L14.4071693,6.49632334 Z M11.2113965,7.43933793 C11.2113965,7.1249997 11.3161759,6.86305117 11.5781245,6.65349235 C11.7876833,6.44393353 12.1020215,6.33915412 12.5211392,6.33915412 C12.8878671,6.33915412 13.1498156,6.44393353 13.4117642,6.65349235 C13.621323,6.86305117 13.7784921,7.1249997 13.7784921,7.43933793 L13.7784921,9.63970555 C13.7784921,10.0064335 13.6737127,10.268382 13.4641539,10.4779408 C13.2545951,10.6874997 12.9402568,10.7922791 12.5211392,10.7922791 C12.1544112,10.7922791 11.840073,10.6874997 11.6305142,10.4779408 C11.4209553,10.268382 11.2637862,9.95404378 11.2637862,9.63970555 L11.2113965,7.43933793 Z M8.85386031,4.97702209 L9.48253679,7.28216903 L9.5349265,7.28216903 L10.1112133,4.97702209 L11.1066177,4.97702209 L9.95404415,8.3299631 L9.95404415,10.6874998 L8.95863972,10.6874998 L8.95863972,8.43474251 L7.80606617,4.97702209 L8.85386031,4.97702209 L8.85386031,4.97702209 Z M20.1700363,17.0790434 C20.1700363,18.5983448 18.9126834,19.8556977 17.3933819,19.8556977 L7.75367617,19.8556977 C6.23437472,19.8556977 4.97702179,18.5983448 4.97702179,17.0790434 L4.97702179,14.8262861 C4.97702179,13.3069847 6.23437472,12.0496318 7.75367617,12.0496318 L17.3933819,12.0496318 C18.9126834,12.0496318 20.1700363,13.3069847 20.1700363,14.8262861 L20.1700363,17.0790434 Z"></path>
                        <path d="M16.7123164,14.3023891 C16.3455884,14.3023891 16.0836399,14.4071685 15.8740811,14.6167274 C15.6645222,14.8262862 15.5597428,15.0882347 15.5597428,15.4549627 L15.5597428,17.183823 C15.5597428,17.5505509 15.6645222,17.8648892 15.8740811,18.074448 C16.0836399,18.2840068 16.3455884,18.3887862 16.7123164,18.3887862 C17.0790443,18.3887862 17.3933825,18.2840068 17.5505516,18.074448 C17.7601105,17.8648892 17.8648899,17.6029406 17.8648899,17.183823 L17.8648899,16.9742641 L17.0790443,16.9742641 L17.0790443,17.1314333 C17.0790443,17.3409921 17.0266546,17.4981612 17.0266546,17.5505509 C16.9742649,17.6029406 16.8694855,17.6553303 16.7647061,17.6553303 C16.6599266,17.6553303 16.5551472,17.6029406 16.5027575,17.5505509 C16.4503678,17.4457715 16.4503678,17.3409921 16.4503678,17.1314333 L16.4503678,16.3979774 L17.9172796,16.3979774 L17.9172796,15.402573 C17.9172796,15.035845 17.8125002,14.7738965 17.655331,14.5643376 C17.2886031,14.4071685 17.0266546,14.3023891 16.7123164,14.3023891 L16.7123164,14.3023891 Z M16.9742648,15.8216906 L16.2931987,15.8216906 L16.2931987,15.4549626 C16.2931987,15.2977935 16.2931987,15.1930141 16.3455884,15.0882347 C16.3979781,15.035845 16.5027575,14.9834553 16.6075369,14.9834553 C16.7123163,14.9834553 16.8170957,15.035845 16.8694854,15.0882347 C16.9218751,15.1406244 16.9742648,15.2977935 16.9742648,15.4549626 L16.9742648,15.8216906 L16.9742648,15.8216906 Z"></path>
                    </g>
                </g>
            </g>
        </g>
    </g>
</svg>