<?xml version="1.0" encoding="UTF-8"?>
<svg width="25px" height="26px" viewBox="0 0 25 26" version="1.1" xmlns="http://www.w3.org/2000/svg" xmlns:xlink="http://www.w3.org/1999/xlink">
    <!-- Generator: sketchtool 53.2 (72643) - https://sketchapp.com -->
    <title>9592B34C-C8E9-4464-BFE3-16B641D24785</title>
    <desc>Created with sketchtool.</desc>
    <g id="style-guide" stroke="none" stroke-width="1" fill="none" fill-rule="evenodd">
        <g transform="translate(-1120.000000, -2880.000000)" fill="#000000" id="icons">
            <g transform="translate(140.000000, 2792.000000)">
                <g id="icon-facebook" transform="translate(980.000000, 88.279412)">
                    <g id="Shape">
                        <path d="M12.470888,0.307923177 C5.69657847,0.307923177 0.205282113,5.79921953 0.205282113,12.5735291 C0.205282113,19.3478386 5.69657847,24.8391349 12.470888,24.8391349 C19.2451975,24.8391349 24.7364939,19.3478386 24.7364939,12.5735291 C24.7364939,5.85054006 19.2451975,0.307923177 12.470888,0.307923177 L12.470888,0.307923177 Z M15.7040817,12.5735295 L13.5999401,12.5735295 L13.5999401,20.1689677 L10.4693878,20.1689677 L10.4693878,12.5735295 L8.98109252,12.5735295 L8.98109252,9.90486208 L10.4693878,9.90486208 L10.4693878,8.15996413 C10.4693878,6.92827145 11.0339136,4.97809138 13.6512606,4.97809138 L16.0120049,4.97809138 L16.0120049,7.59543832 L14.3184275,7.59543832 C14.0618248,7.59543832 13.6512606,7.7493999 13.6512606,8.31392571 L13.6512606,9.90486208 L16.0633254,9.90486208 L15.7040817,12.5735295 L15.7040817,12.5735295 Z"></path>
                    </g>
                </g>
            </g>
        </g>
    </g>
</svg>