<svg width="24" height="23" viewBox="0 0 24 23" fill="none" xmlns="http://www.w3.org/2000/svg">
<path d="M22.9625 7.03306C22.9501 6.09719 22.7749 5.17063 22.4448 4.29481C22.1586 3.55607 21.7214 2.88516 21.1611 2.32494C20.6009 1.76473 19.93 1.32753 19.1913 1.04129C18.3267 0.716749 17.4134 0.541264 16.4901 0.522308C15.3014 0.469174 14.9245 0.454346 11.907 0.454346C8.88947 0.454346 8.50271 0.454346 7.32264 0.522308C6.39979 0.541404 5.48686 0.716887 4.6227 1.04129C3.88384 1.32733 3.21282 1.76446 2.65258 2.3247C2.09234 2.88494 1.65522 3.55595 1.36917 4.29481C1.04398 5.15871 0.868876 6.07185 0.851424 6.99476C0.79829 8.18471 0.782227 8.56159 0.782227 11.5791C0.782227 14.5966 0.782227 14.9821 0.851424 16.1634C0.869959 17.0877 1.04419 17.9997 1.36917 18.8659C1.6557 19.6045 2.09315 20.2752 2.65357 20.8352C3.214 21.3952 3.88508 21.8322 4.62393 22.1181C5.48573 22.4557 6.39882 22.6438 7.32388 22.6742C8.51383 22.7273 8.89071 22.7434 11.9082 22.7434C14.9257 22.7434 15.3125 22.7434 16.4926 22.6742C17.4158 22.656 18.3292 22.4809 19.1937 22.1565C19.9323 21.8699 20.603 21.4326 21.1632 20.8724C21.7234 20.3122 22.1607 19.6415 22.4473 18.9029C22.7722 18.038 22.9465 17.126 22.965 16.2005C23.0181 15.0118 23.0342 14.6349 23.0342 11.6162C23.0317 8.59866 23.0317 8.2156 22.9625 7.03306ZM11.8996 17.2854C8.74366 17.2854 6.18706 14.7288 6.18706 11.5729C6.18706 8.41702 8.74366 5.86041 11.8996 5.86041C13.4146 5.86041 14.8676 6.46226 15.9389 7.53357C17.0102 8.60487 17.6121 10.0579 17.6121 11.5729C17.6121 13.088 17.0102 14.541 15.9389 15.6123C14.8676 16.6836 13.4146 17.2854 11.8996 17.2854ZM17.8394 6.98116C17.6645 6.98133 17.4912 6.94698 17.3295 6.8801C17.1678 6.81322 17.0209 6.7151 16.8972 6.59138C16.7735 6.46765 16.6753 6.32074 16.6085 6.15906C16.5416 5.99737 16.5072 5.82408 16.5074 5.64911C16.5074 5.47426 16.5418 5.30113 16.6087 5.13959C16.6757 4.97805 16.7737 4.83128 16.8974 4.70764C17.021 4.58401 17.1678 4.48593 17.3293 4.41902C17.4908 4.35211 17.664 4.31767 17.8388 4.31767C18.0137 4.31767 18.1868 4.35211 18.3483 4.41902C18.5099 4.48593 18.6567 4.58401 18.7803 4.70764C18.9039 4.83128 19.002 4.97805 19.0689 5.13959C19.1358 5.30113 19.1703 5.47426 19.1703 5.64911C19.1703 6.38557 18.5747 6.98116 17.8394 6.98116Z" fill="#3D2B6C"/>
</svg>
