<svg width="20" height="19" viewBox="0 0 20 19" fill="none" xmlns="http://www.w3.org/2000/svg">
<path d="M8.5654 11.0095C9.6855 12.1458 11.0408 13.0231 12.5361 13.5797L14.559 11.97C14.6189 11.9287 14.69 11.9066 14.7629 11.9066C14.8357 11.9066 14.9068 11.9287 14.9668 11.97L18.7228 14.39C18.8654 14.4757 18.9861 14.5934 19.0754 14.7338C19.1647 14.8742 19.2201 15.0334 19.2373 15.1989C19.2544 15.3644 19.2329 15.5316 19.1744 15.6874C19.1158 15.8431 19.0218 15.9831 18.8999 16.0963L17.1399 17.8348C16.8879 18.0838 16.5781 18.2666 16.2382 18.3668C15.8983 18.4669 15.539 18.4814 15.1921 18.4089C11.7324 17.6944 8.54347 16.0209 5.98983 13.5797C3.49286 11.1143 1.76497 7.97724 1.01576 4.54912C0.941745 4.20767 0.957192 3.85288 1.0606 3.51915C1.16401 3.18542 1.35188 2.88406 1.60599 2.64427L3.43036 0.884301C3.54325 0.768286 3.68093 0.679315 3.83308 0.624049C3.98523 0.568783 4.14792 0.548654 4.30895 0.565171C4.46999 0.581687 4.6252 0.63442 4.76296 0.719421C4.90073 0.804422 5.01748 0.919489 5.10448 1.05601L7.60493 4.76375C7.64806 4.82198 7.67134 4.89252 7.67134 4.96497C7.67134 5.03743 7.64806 5.10797 7.60493 5.16619L5.95763 7.14616C6.5294 8.61152 7.4202 9.93122 8.5654 11.0095Z" fill="#3D2B6C"/>
</svg>
