<svg width="13" height="18" viewBox="0 0 13 18" fill="none" xmlns="http://www.w3.org/2000/svg">
<path d="M6.37488 0.829346C4.68477 0.831388 3.06446 1.52016 1.86937 2.74456C0.674277 3.96897 0.00200065 5.62903 6.78222e-06 7.3606C-0.00201747 8.77564 0.449134 10.1523 1.28425 11.2793C1.28425 11.2793 1.45811 11.5139 1.48651 11.5477L6.37488 17.4543L11.2656 11.5448C11.2911 11.5133 11.4655 11.2793 11.4655 11.2793L11.4661 11.2776C12.3008 10.151 12.7517 8.77499 12.7498 7.3606C12.7478 5.62903 12.0755 3.96897 10.8804 2.74456C9.68531 1.52016 8.06499 0.831388 6.37488 0.829346ZM6.37488 9.7356C5.9164 9.7356 5.46821 9.5963 5.08699 9.33534C4.70578 9.07437 4.40866 8.70344 4.2332 8.26947C4.05775 7.83549 4.01184 7.35796 4.10129 6.89726C4.19073 6.43655 4.41151 6.01337 4.73571 5.68122C5.05991 5.34907 5.47296 5.12287 5.92263 5.03123C6.37231 4.93959 6.83841 4.98662 7.26199 5.16638C7.68558 5.34614 8.04762 5.65055 8.30234 6.04112C8.55706 6.43168 8.69302 6.89087 8.69302 7.3606C8.69225 7.99024 8.44777 8.59388 8.0132 9.03911C7.57863 9.48433 6.98945 9.73481 6.37488 9.7356Z" fill="#3D2B6C"/>
</svg>
