<svg width="27" height="17" viewBox="0 0 27 17" fill="none" xmlns="http://www.w3.org/2000/svg">
<path fill-rule="evenodd" clip-rule="evenodd" d="M26.189 1.9859C26.368 1.39714 26.189 0.963654 25.3317 0.963654H22.5011C21.7808 0.963654 21.4487 1.33783 21.2686 1.75083C21.2686 1.75083 19.829 5.19714 17.7899 7.43573C17.13 8.08488 16.8302 8.29084 16.4701 8.29084C16.29 8.29084 16.0193 8.08488 16.0193 7.49504V1.9859C16.0193 1.27852 15.8209 0.963654 15.2214 0.963654H10.7701C10.3204 0.963654 10.0497 1.29146 10.0497 1.6031C10.0497 2.27273 11.0698 2.42801 11.1744 4.31292V8.40838C11.1744 9.30662 11.0094 9.46945 10.6493 9.46945C9.68958 9.46945 7.35501 6.00696 5.96937 2.04521C5.70087 1.27421 5.42913 0.963654 4.70558 0.963654H1.87283C1.06409 0.963654 0.902344 1.33783 0.902344 1.75083C0.902344 2.48624 1.86205 6.13959 5.37198 10.9715C7.71194 14.2712 11.0062 16.0601 14.0072 16.0601C15.8069 16.0601 16.029 15.6633 16.029 14.9786V12.4844C16.029 11.6897 16.1994 11.5312 16.7698 11.5312C17.1904 11.5312 17.9096 11.7382 19.5896 13.3288C21.5091 15.2147 21.825 16.0601 22.9055 16.0601H25.7361C26.5448 16.0601 26.9503 15.6633 26.7173 14.8783C26.4607 14.0976 25.5441 12.9643 24.3289 11.6196C23.6689 10.854 22.679 10.0291 22.3782 9.6161C21.9587 9.08664 22.0784 8.85049 22.3782 8.37926C22.3782 8.37926 25.8288 3.60662 26.1879 1.9859H26.189Z" fill="#3D2B6C"/>
</svg>
